<?xml version="1.0" standalone="no"?>
<!DOCTYPE svg PUBLIC "-//W3C//DTD SVG 1.1//EN" "http://www.w3.org/Graphics/SVG/1.1/DTD/svg11.dtd" >
<svg>
<metadata>
Created by FontForge 20090622 at Sat Aug 25 09:02:00 2018
 By deploy user
Copyright 2004 by Ralph Oliver du Carrois, published by primetype GmbH, primetype.com for the primetype library. All Rights Reserved.
</metadata>
<defs>
<font id="MaureaHun-Bold" horiz-adv-x="300" >
  <font-face 
    font-family="MaureaHun"
    font-weight="700"
    font-stretch="normal"
    units-per-em="1000"
    panose-1="2 0 8 3 4 0 0 2 0 4"
    ascent="745"
    descent="-255"
    x-height="500"
    cap-height="705"
    bbox="-100 -284 1190 902"
    underline-thickness="50"
    underline-position="-50"
    unicode-range="U+000D-U+FB02"
  />
<missing-glyph horiz-adv-x="574" 
d="M59 0v705h456v-705h-456zM174 115h226v475h-226v-475z" />
    <glyph glyph-name=".notdef" horiz-adv-x="574" 
d="M59 0v705h456v-705h-456zM174 115h226v475h-226v-475z" />
    <glyph glyph-name=".null" horiz-adv-x="0" 
 />
    <glyph glyph-name=".null" horiz-adv-x="0" 
 />
    <glyph glyph-name="nonmarkingreturn" horiz-adv-x="333" 
 />
    <glyph glyph-name="CR" unicode="&#xd;" horiz-adv-x="320" 
 />
    <glyph glyph-name="space" unicode=" " horiz-adv-x="320" 
 />
    <glyph glyph-name="exclam" unicode="!" 
d="M218 229h-136v476h136v-476zM225 0h-150v140h150v-140z" />
    <glyph glyph-name="quotedbl" unicode="&#x22;" horiz-adv-x="500" 
d="M422 720l-22 -302h-100l-22 302h144zM222 720l-22 -302h-100l-22 302h144z" />
    <glyph glyph-name="numbersign" unicode="#" horiz-adv-x="630" 
d="M585 156h-105v-156h-120v156h-100v-156h-120v156h-95v115h95v129h-95v115h95v150h120v-150h100v150h120v-150h105v-115h-105v-129h105v-115zM360 271v129h-100v-129h100z" />
    <glyph glyph-name="dollar" unicode="$" horiz-adv-x="640" 
d="M565 187q0 -79 -43 -131.5t-123 -68.5v-112h-125v106q-107 12 -199 84l66 106q93 -76 179 -76q52 0 77.5 21t25.5 58q0 35 -24 52.5t-96 47.5q-13 5 -20 8l-48.5 21.5t-47.5 27t-46 37.5t-30 48t-13 63q0 163 176 194v112h125v-110q77 -12 161 -71l-67 -105
q-84 64 -154 64q-43 0 -71 -17t-28 -54q0 -11 3.5 -21t12.5 -18l16 -14t21.5 -12.5t22.5 -9.5l25 -9.5t23 -8.5q45 -18 76 -34t62 -40.5t47 -59t16 -78.5z" />
    <glyph glyph-name="percent" unicode="%" horiz-adv-x="850" 
d="M825 178q0 -92 -46 -141t-117 -49q-74 0 -118.5 49t-44.5 141q0 91 45.5 140t117.5 49q75 0 119 -48t44 -141zM652 720l-320 -720h-134l320 720h134zM351 536q0 -92 -46 -141t-117 -49q-74 0 -118.5 49t-44.5 141q0 91 45.5 140t117.5 49q75 0 119 -48t44 -141zM718 178
q0 90 -56 90t-56 -90q0 -91 56 -91t56 91zM244 536q0 90 -56 90t-56 -90q0 -91 56 -91t56 91z" />
    <glyph glyph-name="ampersand" unicode="&#x26;" horiz-adv-x="725" 
d="M715 0h-166l-55 57q-77 -74 -189 -74q-111 0 -172.5 52.5t-61.5 143.5q0 113 114 192q-85 87 -85 158q0 87 59.5 131.5t157.5 44.5q79 0 137.5 -42t58.5 -119q0 -48 -41 -99.5t-103 -89.5l111 -113l46 111h124l-90 -195zM381 543q0 23 -18.5 40t-51.5 17
q-39 0 -58.5 -20.5t-19.5 -47.5q0 -40 60 -100q47 27 67.5 52t20.5 59zM419 131l-161 165q-55 -42 -55 -114q0 -37 31 -65.5t79 -28.5q63 0 106 43z" />
    <glyph glyph-name="quotesingle" unicode="'" 
d="M222 720l-22 -302h-100l-22 302h144z" />
    <glyph glyph-name="parenleft" unicode="(" horiz-adv-x="350" 
d="M335 -130h-115q-73 92 -119 226.5t-46 258.5q0 127 44.5 261t120.5 224h115q-148 -216 -148 -485q0 -252 148 -485z" />
    <glyph glyph-name="parenright" unicode=")" horiz-adv-x="350" 
d="M295 355q0 -124 -46 -258.5t-119 -226.5h-115q148 233 148 485q0 269 -148 485h115q76 -90 120.5 -224t44.5 -261z" />
    <glyph glyph-name="asterisk" unicode="*" horiz-adv-x="480" 
d="M442 536l-130 -25l96 -107l-89 -65l-77 131l-79 -132l-86 67l95 110l-128 21l32 103l125 -50l-14 141h108l-12 -141l129 47z" />
    <glyph glyph-name="plus" unicode="+" horiz-adv-x="600" 
d="M515 275h-155v-157h-120v157h-155v115h155v158h120v-158h155v-115z" />
    <glyph glyph-name="comma" unicode="," 
d="M234 140l-83 -302h-96l25 302h154z" />
    <glyph glyph-name="hyphen" unicode="-" horiz-adv-x="500" 
d="M420 275h-340v115h340v-115z" />
    <glyph glyph-name="period" unicode="." 
d="M225 0h-150v140h150v-140z" />
    <glyph glyph-name="slash" unicode="/" horiz-adv-x="350" 
d="M348 780l-222 -840h-124l220 840h126z" />
    <glyph glyph-name="zero" unicode="0" horiz-adv-x="602" 
d="M572 270q0 -132 -78 -210.5t-193 -78.5q-121 0 -196 77.5t-75 211.5q0 133 76.5 211t194.5 78q119 0 195 -78t76 -211zM434 270q0 91 -39 133t-94 42q-51 0 -92 -43t-41 -132q0 -90 40 -132.5t93 -42.5q52 0 92.5 42.5t40.5 132.5z" />
    <glyph glyph-name="one" unicode="1" horiz-adv-x="503" 
d="M473 0h-380v114h145v275l-141 -88l-62 108l212 121h123v-416h103v-114z" />
    <glyph glyph-name="two" unicode="2" horiz-adv-x="494" 
d="M454 0h-427v111l128 86q86 58 121.5 92t35.5 74q0 34 -25.5 53t-72.5 19q-61 0 -132 -65l-72 89q101 90 216 90q106 0 164.5 -50.5t58.5 -132.5q0 -60 -27 -103.5t-93 -88.5l-83 -57h208v-117z" />
    <glyph glyph-name="three" unicode="3" horiz-adv-x="494" 
d="M454 73q0 -95 -67 -153.5t-168 -58.5q-65 0 -107 12t-86 35l55 98q53 -32 121 -32q57 0 85 30.5t28 70.5q0 44 -33 74t-80 30h-62v102h62q47 0 75.5 22.5t28.5 56.5q0 39 -29.5 57.5t-66.5 18.5q-56 0 -120 -50l-63 89q89 74 209 74q96 0 152 -49.5t56 -125.5
q0 -55 -40 -92t-81 -44q43 -6 87 -50t44 -115z" />
    <glyph glyph-name="four" unicode="4" horiz-adv-x="566" 
d="M556 0h-98v-132h-130v132h-313v108l319 427h124v-424h98v-111zM333 111v247l-184 -247h184z" />
    <glyph glyph-name="five" unicode="5" horiz-adv-x="504" 
d="M464 92q0 -57 -21 -102.5t-56 -73t-77 -41.5t-87 -14q-61 0 -101 10t-88 35l51 98q48 -30 120 -30q56 0 89 31.5t33 86.5q0 58 -31 84.5t-64 26.5q-36 0 -76 -29h-78l19 356h354v-111h-240l-8 -133q32 18 68 18q89 0 141 -58t52 -154z" />
    <glyph glyph-name="six" unicode="6" horiz-adv-x="515" 
d="M487 205q0 -98 -66.5 -161t-162.5 -63q-104 0 -165 77.5t-61 224.5q0 178 73 282.5t209 104.5q85 0 144 -40l-50 -100q-50 29 -106 29q-61 0 -96 -56.5t-35 -130.5q50 41 125 41q82 0 136.5 -53t54.5 -155zM349 200q0 47 -20 75.5t-59 28.5q-58 0 -102 -33
q0 -96 26 -138.5t60 -42.5q41 0 68 27.5t27 82.5z" />
    <glyph glyph-name="seven" unicode="7" horiz-adv-x="458" 
d="M423 422l-214 -570l-127 44l207 515h-269v119h403v-108z" />
    <glyph glyph-name="eight" unicode="8" horiz-adv-x="510" 
d="M490 177q0 -91 -66 -143.5t-169 -52.5q-113 0 -174 52.5t-61 143.5q0 15 2.5 28.5t6 24.5t10.5 22.5l11.5 19t14.5 16t15 13.5t15.5 12t14 9t14 8.5t11.5 6.5q-20 13 -32 23t-30 29.5t-27.5 45.5t-9.5 58q0 85 63 131t157 46q93 0 155.5 -46.5t62.5 -130.5q0 -32 -11 -58
t-31.5 -45.5t-33 -28.5t-32.5 -21q124 -54 124 -163zM339 491q0 34 -23 51t-61 17q-36 0 -60 -16.5t-24 -50.5q0 -36 21.5 -61t81.5 -45q35 27 50 50t15 55zM352 177q0 42 -27.5 64.5t-102.5 46.5q-64 -49 -64 -111q0 -42 26.5 -63.5t70.5 -21.5t70.5 22.5t26.5 62.5z" />
    <glyph glyph-name="nine" unicode="9" horiz-adv-x="513" 
d="M483 247q0 -177 -67.5 -281.5t-191.5 -104.5q-94 0 -166 36l45 99q57 -25 115 -25q64 0 97.5 59.5t33.5 136.5q-63 -50 -127 -50q-77 0 -135.5 59t-58.5 158q0 100 66 157.5t164 57.5q104 0 164.5 -77t60.5 -225zM348 265q0 87 -26.5 132t-60.5 45q-41 0 -69 -26.5
t-28 -81.5q0 -48 21.5 -78t62.5 -30q54 0 100 39z" />
    <glyph glyph-name="colon" unicode=":" 
d="M225 350h-150v140h150v-140zM225 0h-150v140h150v-140z" />
    <glyph glyph-name="semicolon" unicode=";" 
d="M225 350h-150v140h150v-140zM234 140l-83 -302h-96l25 302h154z" />
    <glyph glyph-name="less" unicode="&#x3c;" horiz-adv-x="600" 
d="M510 95l-420 190v95l420 194v-124l-285 -113l285 -117v-125z" />
    <glyph glyph-name="equal" unicode="=" horiz-adv-x="610" 
d="M530 375h-450v115h450v-115zM530 175h-450v115h450v-115z" />
    <glyph glyph-name="greater" unicode="&#x3e;" horiz-adv-x="600" 
d="M510 285l-420 -190v125l285 117l-285 113v124l420 -194v-95z" />
    <glyph glyph-name="question" unicode="?" horiz-adv-x="471" 
d="M421 544q0 -40 -14 -71.5t-34.5 -54l-41 -45.5t-34.5 -57t-14 -77v-15h-136v20q0 55 14 96t34 64.5t40.5 43.5t34.5 43.5t14 52.5q0 28 -22.5 47t-51.5 19q-62 0 -108 -48l-62 94q41 33 84.5 50.5t108.5 17.5q85 0 136.5 -48t51.5 -132zM290 0h-150v140h150v-140z" />
    <glyph glyph-name="at" unicode="@" horiz-adv-x="1053" 
d="M992 320q0 -138 -67 -235.5t-173 -97.5q-63 0 -94.5 34.5t-38.5 73.5q-47 -91 -133 -91q-82 0 -131 53.5t-49 156.5q0 118 72 197.5t183 79.5q102 0 176 -56l-37 -255q-5 -36 6.5 -61.5t45.5 -25.5q38 0 72 55t34 172q0 140 -84 213t-204 73q-101 0 -183 -41t-134 -127
t-52 -205q0 -157 99 -256t256 -99q78 0 176 29l32 -103q-104 -32 -210 -32q-135 0 -245 52t-177.5 158.5t-67.5 250.5q0 208 140.5 343.5t363.5 135.5q102 0 184.5 -32.5t133.5 -88t78.5 -125t27.5 -146.5zM609 360q-8 6 -28.5 11t-33.5 5q-49 0 -79.5 -43t-30.5 -118
q0 -95 60 -95q30 0 55.5 18.5t30.5 49.5z" />
    <glyph glyph-name="A" unicode="A" horiz-adv-x="693" 
d="M683 0h-149l-44 138h-286l-50 -138h-144l270 705h156zM455 250l-47 150l-53 180q-34 -115 -57 -180l-54 -150h211z" />
    <glyph glyph-name="B" unicode="B" horiz-adv-x="612" 
d="M577 199q0 -105 -70 -152t-211 -47h-226v705h226q261 0 261 -199q0 -47 -37 -89t-91 -52q59 -6 103.5 -52t44.5 -114zM415 505q0 43 -30.5 64.5t-84.5 21.5h-92v-179h106q46 0 73.5 25.5t27.5 67.5zM435 201q0 50 -30.5 74t-94.5 24h-102v-185h104q58 0 90.5 23t32.5 64z
" />
    <glyph glyph-name="C" unicode="C" horiz-adv-x="626" 
d="M601 64q-94 -85 -225 -85q-154 0 -245 98t-91 277q0 173 89 271.5t248 98.5q132 0 224 -88l-75 -100q-67 70 -149 70q-93 0 -144 -63t-51 -188q0 -116 52 -187t142 -71q83 0 157 67z" />
    <glyph glyph-name="D" unicode="D" horiz-adv-x="685" 
d="M645 349q0 -92 -29 -160.5t-80.5 -109t-116 -60t-142.5 -19.5h-207v705h207q368 0 368 -356zM503 348q0 243 -216 243h-79v-477h85q92 0 151 61t59 173z" />
    <glyph glyph-name="E" unicode="E" horiz-adv-x="539" 
d="M494 0h-424v705h414v-114h-276v-169h253v-114h-253v-194h286v-114z" />
    <glyph glyph-name="F" unicode="F" horiz-adv-x="519" 
d="M484 591h-276v-178h243v-114h-243v-299h-138v705h414v-114z" />
    <glyph glyph-name="G" unicode="G" horiz-adv-x="671" 
d="M626 77q-108 -98 -253 -98q-152 0 -242.5 99t-90.5 275q0 98 28 172t76.5 116t107 62.5t127.5 20.5q76 0 127.5 -23.5t96.5 -61.5l-76 -101q-65 69 -148 69q-197 0 -197 -254q0 -134 55 -197t139 -63q70 0 116 32v140h-122v110h256v-298z" />
    <glyph glyph-name="H" unicode="H" horiz-adv-x="680" 
d="M610 0h-138v309h-264v-309h-138v705h138v-281h264v281h138v-705z" />
    <glyph glyph-name="I" unicode="I" horiz-adv-x="278" 
d="M208 0h-138v705h138v-705z" />
    <glyph glyph-name="J" unicode="J" horiz-adv-x="444" 
d="M374 297q0 -81 -9.5 -135.5t-35.5 -98.5t-75.5 -65t-126.5 -21q-68 0 -127 23l46 114q42 -19 80 -19q69 0 89.5 43.5t20.5 144.5v422h138v-408z" />
    <glyph glyph-name="K" unicode="K" horiz-adv-x="646" 
d="M641 0h-181l-252 300v-300h-138v705h138v-267l229 267h171l-291 -329z" />
    <glyph glyph-name="L" unicode="L" horiz-adv-x="495" 
d="M490 0h-420v705h138v-583h282v-122z" />
    <glyph glyph-name="M" unicode="M" horiz-adv-x="915" 
d="M845 0h-140v553q-24 -105 -46 -173l-126 -380h-155l-124 380l-48 173v-553h-136v705h217l120 -368l52 -174q32 113 52 174l119 368h215v-705z" />
    <glyph glyph-name="N" unicode="N" horiz-adv-x="706" 
d="M636 0h-183l-181 359l-66 146v-505h-136v705h183l180 -352q12 -24 29 -62l28 -64l10 -26v504h136v-705z" />
    <glyph glyph-name="O" unicode="O" horiz-adv-x="746" 
d="M706 346q0 -92 -28.5 -164t-76.5 -115.5t-107 -65.5t-125 -22q-65 0 -122.5 22t-104.5 65.5t-74.5 117t-27.5 168.5q0 181 94.5 276.5t238.5 95.5q148 0 240.5 -96t92.5 -282zM564 352q0 121 -50.5 189.5t-142.5 68.5q-88 0 -138.5 -70.5t-50.5 -191.5q0 -110 50 -182.5
t139 -72.5q91 0 142 72.5t51 186.5z" />
    <glyph glyph-name="P" unicode="P" horiz-adv-x="597" 
d="M557 474q0 -120 -75 -178t-202 -58h-72v-238h-138v705h202q135 0 210 -60t75 -171zM415 474q0 59 -37.5 88t-99.5 29h-70v-239h71q24 0 45.5 5.5t43 18t34.5 38t13 60.5z" />
    <glyph glyph-name="Q" unicode="Q" horiz-adv-x="746" 
d="M706 346q0 -92 -28.5 -164t-76.5 -115.5t-107 -65.5t-125 -22q-65 0 -122.5 22t-104.5 65.5t-74.5 117t-27.5 168.5q0 181 94.5 276.5t238.5 95.5q148 0 240.5 -96t92.5 -282zM633 -133l-42 -118l-311 92l30 104zM564 352q0 121 -50.5 189.5t-142.5 68.5
q-88 0 -138.5 -70.5t-50.5 -191.5q0 -110 50 -182.5t139 -72.5q91 0 142 72.5t51 186.5z" />
    <glyph glyph-name="R" unicode="R" horiz-adv-x="624" 
d="M619 0h-159l-180 276h-72v-276h-138v705h237q122 0 191.5 -54t69.5 -156q0 -148 -138 -200zM426 495q0 96 -111 96h-107v-201h93q125 0 125 105z" />
    <glyph glyph-name="S" unicode="S" horiz-adv-x="620" 
d="M575 194q0 -107 -75.5 -161t-201.5 -54q-153 0 -268 89l65 110q108 -81 210 -81q59 0 93.5 22.5t34.5 59.5q0 44 -36 71t-129 55q-48 15 -81 29.5t-65 38.5t-48 60t-16 84q0 94 71.5 150.5t199.5 56.5q127 0 245 -79l-66 -105q-90 70 -186 70q-52 0 -87 -19.5t-35 -59.5
q0 -41 33 -62.5t116 -46.5q46 -14 79 -28.5t70 -40.5t57 -66t20 -93z" />
    <glyph glyph-name="T" unicode="T" horiz-adv-x="606" 
d="M586 583h-214v-583h-138v583h-214v122h566v-122z" />
    <glyph glyph-name="U" unicode="U" horiz-adv-x="670" 
d="M600 261q0 -135 -75.5 -207.5t-190.5 -72.5q-120 0 -192 69.5t-72 207.5v447h136v-428q0 -100 34.5 -138.5t93.5 -38.5q130 0 130 177v428h136v-444z" />
    <glyph glyph-name="V" unicode="V" horiz-adv-x="702" 
d="M672 705l-234 -705h-165l-243 705h149l118 -359l58 -196q38 134 58 196l118 359h141z" />
    <glyph glyph-name="W" unicode="W" horiz-adv-x="1002" 
d="M967 705l-178 -705h-166l-77 312l-45 212q-29 -148 -45 -212l-80 -312h-166l-175 705h142l81 -350l40 -208q24 147 40 210l88 348h155l89 -350q7 -28 17 -80l17 -90l6 -38q25 145 40 208l82 350h135z" />
    <glyph glyph-name="X" unicode="X" horiz-adv-x="706" 
d="M681 0h-169l-152 256l-169 -256h-166l255 366l-218 339h169l133 -226l144 226h166l-231 -334z" />
    <glyph glyph-name="Y" unicode="Y" horiz-adv-x="660" 
d="M640 705l-234 -417v-288h-136v288l-250 417h157l163 -277l148 277h152z" />
    <glyph glyph-name="Z" unicode="Z" horiz-adv-x="561" 
d="M526 600l-325 -484h322v-116h-493v105l326 484h-285v116h455v-105z" />
    <glyph glyph-name="bracketleft" unicode="[" horiz-adv-x="365" 
d="M340 -130h-240v970h240v-115h-110v-740h110v-115z" />
    <glyph glyph-name="backslash" unicode="\" horiz-adv-x="350" 
d="M348 -60h-124l-222 840h126z" />
    <glyph glyph-name="bracketright" unicode="]" horiz-adv-x="365" 
d="M265 -130h-240v115h110v740h-110v115h240v-970z" />
    <glyph glyph-name="asciicircum" unicode="^" horiz-adv-x="540" 
d="M500 440h-132l-95 228l-103 -228h-130l171 340h121z" />
    <glyph glyph-name="underscore" unicode="_" horiz-adv-x="500" 
d="M502 -200h-504v115h504v-115z" />
    <glyph glyph-name="grave" unicode="`" horiz-adv-x="328" 
d="M298 598h-111l-157 147h165z" />
    <glyph glyph-name="a" unicode="a" horiz-adv-x="533" 
d="M474 0h-101l-15 57q-25 -33 -64.5 -53t-86.5 -20q-69 0 -120.5 39.5t-51.5 122.5q0 84 66 128t180 44h52v18q0 41 -19.5 62t-49.5 21q-82 0 -173 -50l-39 91q107 56 193 56q115 0 169 -44.5t54 -146.5v-221q0 -10 3 -53t3 -51zM333 126v106h-41q-119 0 -119 -84
q0 -31 20 -49t55 -18q55 0 85 45z" />
    <glyph glyph-name="b" unicode="b" horiz-adv-x="571" 
d="M531 252q0 -129 -62.5 -198.5t-154.5 -69.5q-38 0 -75.5 16.5t-58.5 46.5l-20 -47h-101q0 6 3 43t3 51v626h135v-252q51 48 123 48q94 0 151 -68t57 -196zM393 250q0 88 -30 124.5t-72 36.5q-55 0 -91 -46v-250q23 -26 69 -26q58 0 91 41t33 120z" />
    <glyph glyph-name="c" unicode="c" horiz-adv-x="489" 
d="M474 455l-64 -94q-56 46 -114 46q-52 0 -85 -38.5t-33 -121.5q0 -62 33.5 -108t82.5 -46q35 0 61 11t59 36l58 -94q-78 -62 -171 -62q-127 0 -194 72.5t-67 190.5q0 123 69.5 196t192.5 73q92 0 172 -61z" />
    <glyph glyph-name="d" unicode="d" horiz-adv-x="576" 
d="M517 0h-101l-15 61q-22 -35 -64.5 -56t-89.5 -21q-96 0 -151.5 69.5t-55.5 198.5q0 124 63 194t152 70q71 0 121 -42v246h135v-626q0 -14 3 -51t3 -43zM376 140v242q-29 29 -75 29q-49 0 -86 -36.5t-37 -124.5q0 -80 27.5 -120.5t77.5 -40.5q27 0 54.5 16.5t38.5 34.5z
" />
    <glyph glyph-name="e" unicode="e" horiz-adv-x="549" 
d="M509 210h-336q9 -64 46.5 -92.5t82.5 -28.5q43 0 72.5 12.5t62.5 40.5l62 -86q-88 -72 -193 -72q-114 0 -190 66.5t-76 195.5q0 137 66.5 203.5t173.5 66.5q119 0 174 -83t55 -223zM379 297q-2 122 -101 122q-94 0 -104 -122h205z" />
    <glyph glyph-name="f" unicode="f" horiz-adv-x="345" 
d="M385 690l-45 -100q-29 21 -63 21q-56 0 -56 -74v-37h108v-105h-108v-395h-135v395h-76v105h76v27q0 99 45 146t139 47q59 0 115 -30z" />
    <glyph glyph-name="g" unicode="g" horiz-adv-x="564" 
d="M544 513l-17 -97l-76 7q35 -35 35 -92q0 -92 -61 -135t-154 -43q-37 0 -70 11q-15 -13 -15 -30q0 -19 37 -25l144 -25q61 -10 102.5 -49.5t41.5 -110.5q0 -68 -61 -116t-164 -48q-120 0 -184.5 38t-64.5 110q0 90 89 126q-52 29 -52 78t59 86q-34 18 -57 54t-23 77
q0 82 55.5 134.5t160.5 52.5q15 0 67 -11zM356 331q0 85 -87 85q-42 0 -63.5 -25t-21.5 -62q0 -32 23 -54t63 -22q37 0 61.5 20t24.5 58zM380 -75q0 49 -57 59l-129 21q-42 -25 -42 -81q0 -30 33.5 -49t95.5 -19q46 0 72.5 19.5t26.5 49.5z" />
    <glyph glyph-name="h" unicode="h" horiz-adv-x="574" 
d="M509 0h-135v278q0 71 -15.5 100t-64.5 29q-51 0 -94 -57v-350h-135v720h135v-259q61 55 133 55q97 0 136.5 -55t39.5 -193v-268z" />
    <glyph glyph-name="i" unicode="i" horiz-adv-x="273" 
d="M208 586h-143v134h143v-134zM204 0h-135v500h135v-500z" />
    <glyph glyph-name="j" unicode="j" horiz-adv-x="273" 
d="M208 586h-143v134h143v-134zM204 54q0 -128 -67 -193t-192 -83l-20 109q67 12 105.5 43.5t38.5 97.5v472h135v-446z" />
    <glyph glyph-name="k" unicode="k" horiz-adv-x="537" 
d="M527 0h-165l-162 233v-233h-135v720h135v-395l151 174h153l-187 -214z" />
    <glyph glyph-name="l" unicode="l" horiz-adv-x="265" 
d="M200 0h-135v720h135v-720z" />
    <glyph glyph-name="m" unicode="m" horiz-adv-x="864" 
d="M799 0h-135v278q0 65 -15 97t-61 32q-50 0 -90 -54q1 -8 1 -25v-328h-135v276q0 38 -1.5 57.5t-9 39t-23 27t-42.5 7.5q-22 0 -47.5 -17t-40.5 -39v-351h-135v410q0 10 -3 49.5t-3 40.5h101l15 -60q68 76 138 76q59 0 93.5 -19t60.5 -57q59 76 146 76q105 0 145.5 -59
t40.5 -182v-275z" />
    <glyph glyph-name="n" unicode="n" horiz-adv-x="574" 
d="M509 0h-135v278q0 68 -15 98.5t-66 30.5q-47 0 -93 -57v-350h-135v410q0 10 -3 49.5t-3 40.5h101l15 -64q63 80 157 80q97 0 137 -55t40 -192v-269z" />
    <glyph glyph-name="o" unicode="o" horiz-adv-x="578" 
d="M538 252q0 -125 -70 -196.5t-179 -71.5q-110 0 -179.5 71.5t-69.5 196.5q0 124 70 194t179 70q111 0 180 -69.5t69 -194.5zM401 252q0 70 -29 114.5t-83 44.5q-57 0 -84.5 -43.5t-27.5 -115.5q0 -71 29 -117t83 -46q57 0 84.5 45.5t27.5 117.5z" />
    <glyph glyph-name="p" unicode="p" horiz-adv-x="571" 
d="M531 248q0 -127 -63.5 -195.5t-149.5 -68.5q-74 0 -118 43v-227h-135v606q0 14 -3 51t-3 43h101l15 -58q62 74 148 74q95 0 151.5 -68.5t56.5 -199.5zM393 250q0 77 -26 119t-76 42q-54 0 -91 -46v-251q23 -25 74 -25q20 0 39 7t38 23.5t30.5 50.5t11.5 80z" />
    <glyph glyph-name="q" unicode="q" horiz-adv-x="576" 
d="M517 500q0 -6 -3 -43t-3 -51v-606h-135v233q-52 -49 -126 -49q-96 0 -153 68.5t-57 195.5q0 128 63 198t152 70q46 0 86 -20t60 -45l15 49h101zM376 141v241q-29 29 -74 29q-57 0 -90.5 -41.5t-33.5 -119.5q0 -161 107 -161q23 0 48 14t43 38z" />
    <glyph glyph-name="r" unicode="r" horiz-adv-x="395" 
d="M377 511l-39 -146q-23 14 -47 14q-22 0 -41.5 -12.5t-28.5 -23.5t-21 -30v-313h-135v405q0 8 -1 27t-3 41t-2 27h101l10 -89q52 105 164 105q26 0 43 -5z" />
    <glyph glyph-name="s" unicode="s" horiz-adv-x="468" 
d="M433 138q0 -75 -55.5 -113.5t-147.5 -38.5q-64 0 -110.5 17t-99.5 52l59 93q79 -59 147 -59q69 0 69 45q0 27 -22.5 40.5t-74.5 26.5q-156 39 -156 157q0 70 53 113t148 43q109 0 185 -58l-54 -90q-26 22 -64 33.5t-61 11.5q-69 0 -69 -40q0 -20 17 -34t38 -21t71 -20
q127 -34 127 -158z" />
    <glyph glyph-name="t" unicode="t" horiz-adv-x="392" 
d="M392 16q-47 -28 -118 -28q-97 0 -137.5 45.5t-40.5 147.5v214h-86v105h86v135h136v-135h127v-105h-128v-223q0 -39 12.5 -57.5t43.5 -18.5q33 0 65 17z" />
    <glyph glyph-name="u" unicode="u" horiz-adv-x="564" 
d="M505 0h-101l-15 60q-57 -74 -149 -74q-94 0 -134.5 51.5t-40.5 154.5v308h135v-291q0 -69 14 -93.5t57 -24.5q54 0 93 59v350h135v-410q0 -10 3 -49.5t3 -40.5z" />
    <glyph glyph-name="v" unicode="v" horiz-adv-x="538" 
d="M528 500l-176 -500h-166l-176 500h137l70 -207l54 -172q33 110 54 172l70 207h133z" />
    <glyph glyph-name="w" unicode="w" horiz-adv-x="836" 
d="M816 500l-139 -500h-160l-49 178l-48 189q-30 -126 -48 -189l-50 -178h-157l-145 500h134l53 -192l40 -168q23 105 42 168l59 192h154l54 -192l41 -168q24 104 42 168l53 192h124z" />
    <glyph glyph-name="x" unicode="x" horiz-adv-x="543" 
d="M538 0h-156l-108 166l-118 -166h-151l189 256l-170 244h156l94 -147l101 147h150l-170 -235z" />
    <glyph glyph-name="y" unicode="y" horiz-adv-x="523" 
d="M513 500l-174 -538q-56 -173 -262 -192l-19 107q125 17 148 99l7 26l-203 498h143l73 -193q11 -28 24.5 -71t21.5 -72l9 -28l96 364h136z" />
    <glyph glyph-name="z" unicode="z" horiz-adv-x="458" 
d="M428 400l-235 -293h229v-107h-397v100l235 293h-214v107h382v-100z" />
    <glyph glyph-name="braceleft" unicode="{" horiz-adv-x="350" 
d="M350 -130q-237 0 -237 203v94q0 34 -9.5 59.5t-23.5 37.5t-27.5 18.5t-22.5 7.5l-10 1v130q4 0 10 1.5t22 9t28.5 19.5t22.5 36.5t10 57.5v92q0 102 61.5 152.5t175.5 50.5v-115q-60 0 -82.5 -30t-22.5 -97v-93q0 -57 -37.5 -99.5t-87.5 -50.5q54 -14 89.5 -52.5
t35.5 -95.5v-92q0 -66 24.5 -98t80.5 -32v-115z" />
    <glyph glyph-name="bar" unicode="|" horiz-adv-x="350" 
d="M235 -100h-120v910h120v-910z" />
    <glyph glyph-name="braceright" unicode="}" horiz-adv-x="350" 
d="M330 291q-4 0 -10 -1t-22 -7.5t-28.5 -18.5t-22.5 -37.5t-10 -59.5v-94q0 -203 -237 -203v115q56 0 80.5 32t24.5 98v92q0 57 35.5 95.5t89.5 52.5q-50 8 -87.5 50.5t-37.5 99.5v93q0 67 -22.5 97t-82.5 30v115q114 0 175.5 -50.5t61.5 -152.5v-92q0 -33 9.5 -57.5
t23.5 -36.5t27.5 -19.5t22.5 -9.5l10 -1v-130z" />
    <glyph glyph-name="asciitilde" unicode="~" horiz-adv-x="600" 
d="M540 310q-58 -65 -148 -65q-34 0 -85.5 21.5t-83.5 21.5q-29 0 -46.5 -7t-40.5 -27l-63 88q41 32 71.5 46.5t73.5 14.5q39 0 91.5 -22t81.5 -22q47 0 79 33z" />
    <glyph glyph-name="uni00A0" unicode="&#xa0;" horiz-adv-x="320" 
 />
    <glyph glyph-name="exclamdown" unicode="&#xa1;" 
d="M225 360h-150v140h150v-140zM218 -205h-136v476h136v-476z" />
    <glyph glyph-name="cent" unicode="&#xa2;" horiz-adv-x="489" 
d="M474 455l-64 -94q-56 46 -114 46q-52 0 -85 -38.5t-33 -121.5q0 -62 33.5 -108t82.5 -46q35 0 61 11t59 36l58 -94q-53 -44 -122 -57v-114h-125v117q-91 20 -138 88t-47 167q0 102 48.5 170t136.5 90v123h125v-118q66 -12 124 -57z" />
    <glyph glyph-name="sterling" unicode="&#xa3;" horiz-adv-x="640" 
d="M590 597l-71 -103q-63 61 -127 61q-47 0 -72 -21t-25 -76v-52h215v-120h-215v-164h252v-122h-497v122h107v164h-107v120h107v41q0 66 21 113.5t57 72.5t75.5 36t85.5 11q92 0 194 -83z" />
    <glyph glyph-name="currency" unicode="&#xa4;" horiz-adv-x="520" 
d="M496 175l-76 -75l-60 60q-48 -27 -100 -27q-55 0 -102 28l-59 -58l-74 73l60 60q-26 47 -26 98t26 98l-61 61l76 76l60 -60q44 26 100 26q55 0 99 -26l60 60l75 -73l-60 -60q27 -48 27 -102q0 -51 -26 -98zM357 334q0 42 -28.5 71.5t-68.5 29.5t-68.5 -30t-28.5 -71
t28.5 -71t68.5 -30q42 0 69.5 30t27.5 71z" />
    <glyph glyph-name="yen" unicode="&#xa5;" horiz-adv-x="640" 
d="M610 665l-177 -295h143v-110h-180v-45h180v-110h-180v-105h-136v105h-180v110h180v45h-180v110h138l-188 295h157l143 -236l128 236h152z" />
    <glyph glyph-name="brokenbar" unicode="&#xa6;" 
d="M210 450h-120v360h120v-360zM210 -100h-120v360h120v-360z" />
    <glyph glyph-name="section" unicode="&#xa7;" horiz-adv-x="470" 
d="M432 317q0 -69 -86 -135q67 -42 67 -114q0 -71 -55 -110.5t-135 -39.5q-49 0 -99 17t-86 43l54 84q62 -41 125 -41q65 0 65 41q0 6 -1 11t-4 9.5t-5.5 7.5t-8 6.5t-9.5 5.5t-12.5 5l-14 5l-17 6t-18.5 6q-145 50 -145 163q0 80 89 132q-33 18 -52.5 49t-19.5 65
q0 62 49.5 104.5t130.5 42.5q55 0 95 -14.5t83 -47.5l-53 -81q-22 20 -54 31t-52 11q-68 0 -68 -42q0 -5 1.5 -10t5 -9l6.5 -7.5t10.5 -7t13 -6.5t16.5 -7t18.5 -6.5t22.5 -8t25 -8.5q118 -42 118 -150zM305 303q0 29 -18.5 45.5t-59.5 28.5q-54 -31 -54 -71q0 -33 19 -50
t67 -31q46 38 46 78z" />
    <glyph glyph-name="dieresis" unicode="&#xa8;" horiz-adv-x="421" 
d="M391 575h-138v130h138v-130zM168 575h-138v130h138v-130z" />
    <glyph glyph-name="copyright" unicode="&#xa9;" horiz-adv-x="810" 
d="M765 345q0 -107 -50.5 -189.5t-132 -124t-177.5 -41.5q-150 0 -255 96t-105 259q0 160 105.5 257.5t254.5 97.5q148 0 254 -98t106 -257zM666 345q0 119 -74 191t-187 72q-114 0 -187.5 -71.5t-73.5 -191.5q0 -119 74.5 -191t186.5 -72q113 0 187 72t74 191zM528 201
q-59 -41 -113 -41q-75 0 -124 50t-49 135q0 81 48.5 132.5t129.5 51.5q57 0 108 -38l-38 -62q-30 29 -70 29q-96 0 -96 -112q0 -55 25.5 -85t65.5 -30q33 0 76 31z" />
    <glyph glyph-name="ordfeminine" unicode="&#xaa;" horiz-adv-x="520" 
d="M422 310h-87l-8 45q-15 -27 -45.5 -41t-58.5 -14q-58 0 -97.5 32t-39.5 97q0 62 51.5 100.5t147.5 38.5h25v17q0 48 -45 48q-65 0 -133 -33l-32 82q73 38 152 38q166 0 166 -137v-190q0 -8 2 -42.5t2 -40.5zM424 0h-334v115h334v-115zM310 417v72h-23q-91 0 -91 -57
q0 -14 14 -25.5t35 -11.5q35 0 65 22z" />
    <glyph glyph-name="guillemotleft" unicode="&#xab;" horiz-adv-x="580" 
d="M500 112h-106l-119 227l119 227h106l-83 -227zM295 112h-106l-119 227l119 227h106l-83 -227z" />
    <glyph glyph-name="logicalnot" unicode="&#xac;" horiz-adv-x="730" 
d="M640 89h-120v186h-430v115h550v-301z" />
    <glyph glyph-name="uni00AD" unicode="&#xad;" horiz-adv-x="500" 
d="M420 275h-340v115h340v-115z" />
    <glyph glyph-name="registered" unicode="&#xae;" horiz-adv-x="810" 
d="M765 345q0 -107 -50.5 -189.5t-132 -124t-177.5 -41.5q-150 0 -255 96t-105 259q0 160 105.5 257.5t254.5 97.5q148 0 254 -98t106 -257zM666 345q0 119 -74 191t-187 72q-114 0 -187.5 -71.5t-73.5 -191.5q0 -119 74.5 -191t186.5 -72q113 0 187 72t74 191zM564 176h-93
l-90 131h-16v-131h-76v353h113q68 0 105.5 -29t37.5 -81q0 -85 -83 -105zM466 419q0 42 -59 42h-42v-86h38q36 0 49.5 11t13.5 33z" />
    <glyph glyph-name="macron" unicode="&#xaf;" horiz-adv-x="333" 
d="M303 615h-273v110h273v-110z" />
    <glyph glyph-name="degree" unicode="&#xb0;" horiz-adv-x="420" 
d="M362 562q0 -66 -39 -112t-113 -46q-77 0 -114.5 45.5t-37.5 112.5q0 66 39 112t113 46q75 0 113.5 -45.5t38.5 -112.5zM270 562q0 36 -17 57.5t-43 21.5q-27 0 -43.5 -21t-16.5 -58t17.5 -58t42.5 -21t42.5 22t17.5 57z" />
    <glyph glyph-name="plusminus" unicode="&#xb1;" horiz-adv-x="600" 
d="M515 275h-155v-107h-120v107h-155v115h155v158h120v-158h155v-115zM515 0h-430v115h430v-115z" />
    <glyph glyph-name="twosuperior" unicode="&#xb2;" horiz-adv-x="360" 
d="M313 320h-273v86l78 66q35 30 50 44t28.5 33.5t13.5 37.5q0 23 -13.5 39t-39.5 16q-15 0 -29.5 -6t-22.5 -12t-23 -19l-53 71q65 54 133 54q74 0 112 -35.5t38 -97.5q0 -73 -79 -141l-53 -46h133v-90z" />
    <glyph glyph-name="threesuperior" unicode="&#xb3;" horiz-adv-x="360" 
d="M308 434q0 -58 -42 -91t-113 -33q-84 0 -130 46l49 72q30 -30 70 -30q36 0 50.5 12.5t14.5 28.5q0 43 -63 43h-49v83h49q57 0 57 41q0 36 -52 36q-36 0 -75 -30l-46 74q57 44 138 44q64 0 100 -31t36 -81q0 -34 -23 -60t-48 -30q26 -4 51.5 -29.5t25.5 -64.5z" />
    <glyph glyph-name="acute" unicode="&#xb4;" horiz-adv-x="328" 
d="M298 745l-157 -147h-111l103 147h165z" />
    <glyph glyph-name="mu" unicode="&#xb5;" horiz-adv-x="564" 
d="M505 0h-101l-15 60q-57 -74 -149 -74q-22 0 -40 9v-195h-135v700h135v-291q0 -69 14 -93.5t57 -24.5q54 0 93 59v350h135v-410q0 -10 3 -49.5t3 -40.5z" />
    <glyph glyph-name="paragraph" unicode="&#xb6;" horiz-adv-x="640" 
d="M580 0h-125v700h125v-700zM389 0h-125v300q-86 0 -145 58t-59 144q0 88 60 143t147 55h122v-700zM264 438v139q-29 0 -50.5 -17t-21.5 -54q0 -34 20.5 -51t51.5 -17z" />
    <glyph glyph-name="periodcentered" unicode="&#xb7;" 
d="M225 255h-150v140h150v-140z" />
    <glyph glyph-name="cedilla" unicode="&#xb8;" horiz-adv-x="315" 
d="M280 -148q0 -59 -38 -97.5t-116 -38.5q-62 0 -103 21l32 92q34 -14 62 -14q20 0 34.5 10.5t14.5 29.5q0 16 -12 25t-22 11t-34 5l16 124h91l-6 -70q39 -8 60 -34t21 -64z" />
    <glyph glyph-name="onesuperior" unicode="&#xb9;" horiz-adv-x="360" 
d="M251 320h-95v290l-85 -51l-36 89l136 72h80v-400z" />
    <glyph glyph-name="ordmasculine" unicode="&#xba;" horiz-adv-x="520" 
d="M458 512q0 -90 -48.5 -151t-149.5 -61q-104 0 -151 60t-47 152q0 90 47.5 149t150.5 59q101 0 149.5 -59t48.5 -149zM432 0h-344v115h344v-115zM348 512q0 53 -23.5 85.5t-64.5 32.5t-64.5 -32.5t-23.5 -85.5q0 -54 23.5 -88t64.5 -34t64.5 34t23.5 88z" />
    <glyph glyph-name="guillemotright" unicode="&#xbb;" horiz-adv-x="580" 
d="M500 339l-119 -227h-106l83 227l-83 227h106zM295 339l-119 -227h-106l83 227l-83 227h106z" />
    <glyph glyph-name="onequarter" unicode="&#xbc;" horiz-adv-x="880" 
d="M815 83h-47v-83h-94v83h-190v85l201 237h83v-235h47v-87zM650 810l-306 -910h-124l304 910h126zM271 320h-95v290l-85 -51l-36 89l136 72h80v-400zM675 170v111l-89 -111h89z" />
    <glyph glyph-name="onehalf" unicode="&#xbd;" horiz-adv-x="880" 
d="M833 0h-273v86l78 66q35 30 50 44t28.5 33.5t13.5 37.5q0 23 -13.5 39t-39.5 16q-15 0 -29.5 -6t-22.5 -12t-23 -19l-53 71q65 54 133 54q74 0 112 -35.5t38 -97.5q0 -73 -79 -141l-53 -46h133v-90zM650 810l-306 -910h-124l304 910h126zM271 320h-95v290l-85 -51l-36 89
l136 72h80v-400z" />
    <glyph glyph-name="threequarters" unicode="&#xbe;" horiz-adv-x="880" 
d="M815 83h-47v-83h-94v83h-190v85l201 237h83v-235h47v-87zM650 810l-306 -910h-124l304 910h126zM326 431q0 -58 -42 -91t-113 -33q-84 0 -130 46l49 72q30 -30 70 -30q36 0 50.5 12.5t14.5 28.5q0 43 -63 43h-49v83h49q57 0 57 41q0 36 -52 36q-36 0 -75 -30l-46 74
q57 44 138 44q64 0 100 -31t36 -81q0 -34 -23 -60t-48 -30q26 -4 51.5 -29.5t25.5 -64.5zM675 170v111l-89 -111h89z" />
    <glyph glyph-name="questiondown" unicode="&#xbf;" horiz-adv-x="471" 
d="M321 360h-150v140h150v-140zM421 -156q-41 -33 -84.5 -50.5t-108.5 -17.5q-85 0 -136.5 48t-51.5 132q0 40 14 71.5t34.5 54l41 45.5t34.5 57t14 77v15h136v-20q0 -55 -14 -96t-34.5 -64.5t-40.5 -43.5t-34 -43.5t-14 -52.5q0 -28 22.5 -47t51.5 -19q62 0 108 48z" />
    <glyph glyph-name="Agrave" unicode="&#xc0;" horiz-adv-x="693" 
d="M451 758h-131l-197 117h185zM683 0h-149l-44 138h-286l-50 -138h-144l270 705h156zM455 250l-47 150l-53 180q-34 -115 -57 -180l-54 -150h211z" />
    <glyph glyph-name="Aacute" unicode="&#xc1;" horiz-adv-x="693" 
d="M593 875l-197 -117h-131l143 117h185zM683 0h-149l-44 138h-286l-50 -138h-144l270 705h156zM455 250l-47 150l-53 180q-34 -115 -57 -180l-54 -150h211z" />
    <glyph glyph-name="Acircumflex" unicode="&#xc2;" horiz-adv-x="693" 
d="M580 758h-162l-60 62l-59 -62h-162l143 117h156zM683 0h-149l-44 138h-286l-50 -138h-144l270 705h156zM455 250l-47 150l-53 180q-34 -115 -57 -180l-54 -150h211z" />
    <glyph glyph-name="Atilde" unicode="&#xc3;" horiz-adv-x="693" 
d="M546 788q-58 -45 -112 -45q-27 0 -68.5 21.5t-65.5 21.5q-36 0 -76 -31l-40 92q62 48 120 48q30 0 71.5 -21.5t61.5 -21.5q25 0 58 24zM683 0h-149l-44 138h-286l-50 -138h-144l270 705h156zM455 250l-47 150l-53 180q-34 -115 -57 -180l-54 -150h211z" />
    <glyph glyph-name="Adieresis" unicode="&#xc4;" horiz-adv-x="693" 
d="M539 740h-138v130h138v-130zM316 740h-138v130h138v-130zM683 0h-149l-44 138h-286l-50 -138h-144l270 705h156zM455 250l-47 150l-53 180q-34 -115 -57 -180l-54 -150h211z" />
    <glyph glyph-name="Aring" unicode="&#xc5;" horiz-adv-x="693" 
d="M683 0h-149l-44 138h-286l-50 -138h-144l270 703q-40 32 -40 85q0 47 34 80.5t82 33.5t82.5 -33t34.5 -81q0 -51 -38 -84zM399 789q0 19 -11 31.5t-32 12.5q-18 0 -30.5 -14t-12.5 -30q0 -17 12 -30.5t31 -13.5q20 0 31.5 12.5t11.5 31.5zM455 250l-47 150l-53 180
q-34 -115 -57 -180l-54 -150h211z" />
    <glyph glyph-name="AE" unicode="&#xc6;" horiz-adv-x="933" 
d="M888 0h-411v138h-243l-72 -138h-152l387 705h481v-114h-266v-169h243v-114h-243v-194h276v-114zM477 250v360q-76 -155 -105 -210l-81 -150h186z" />
    <glyph glyph-name="Ccedilla" unicode="&#xc7;" horiz-adv-x="626" 
d="M601 64q-83 -76 -199 -84l-3 -30q39 -8 60 -34t21 -64q0 -59 -38 -97.5t-116 -38.5q-62 0 -103 21l32 92q34 -14 62 -14q20 0 34.5 10.5t14.5 29.5q0 16 -12 25t-22 11t-34 5l11 88q-125 21 -197 116.5t-72 253.5q0 173 89 271.5t248 98.5q132 0 224 -88l-75 -100
q-67 70 -149 70q-93 0 -144 -63t-51 -188q0 -116 52 -187t142 -71q83 0 157 67z" />
    <glyph glyph-name="Egrave" unicode="&#xc8;" horiz-adv-x="539" 
d="M397 758h-131l-197 117h185zM494 0h-424v705h414v-114h-276v-169h253v-114h-253v-194h286v-114z" />
    <glyph glyph-name="Eacute" unicode="&#xc9;" horiz-adv-x="539" 
d="M500 875l-197 -117h-131l143 117h185zM494 0h-424v705h414v-114h-276v-169h253v-114h-253v-194h286v-114z" />
    <glyph glyph-name="Ecircumflex" unicode="&#xca;" horiz-adv-x="539" 
d="M500 758h-162l-60 62l-59 -62h-162l143 117h156zM494 0h-424v705h414v-114h-276v-169h253v-114h-253v-194h286v-114z" />
    <glyph glyph-name="Edieresis" unicode="&#xcb;" horiz-adv-x="539" 
d="M458 740h-138v130h138v-130zM235 740h-138v130h138v-130zM494 0h-424v705h414v-114h-276v-169h253v-114h-253v-194h286v-114z" />
    <glyph glyph-name="Igrave" unicode="&#xcc;" horiz-adv-x="278" 
d="M251 758h-131l-197 117h185zM208 0h-138v705h138v-705z" />
    <glyph glyph-name="Iacute" unicode="&#xcd;" horiz-adv-x="278" 
d="M355 875l-197 -117h-131l143 117h185zM208 0h-138v705h138v-705z" />
    <glyph glyph-name="Icircumflex" unicode="&#xce;" horiz-adv-x="278" 
d="M361 758h-162l-60 62l-59 -62h-162l143 117h156zM208 0h-138v705h138v-705z" />
    <glyph glyph-name="Idieresis" unicode="&#xcf;" horiz-adv-x="278" 
d="M319 740h-138v130h138v-130zM96 740h-138v130h138v-130zM208 0h-138v705h138v-705z" />
    <glyph glyph-name="Eth" unicode="&#xd0;" horiz-adv-x="685" 
d="M645 349q0 -92 -29 -160.5t-80.5 -109t-116 -60t-142.5 -19.5h-207v319h-60v114h60v272h207q368 0 368 -356zM503 348q0 243 -216 243h-79v-158h158v-114h-158v-205h85q92 0 151 61t59 173z" />
    <glyph glyph-name="Ntilde" unicode="&#xd1;" horiz-adv-x="706" 
d="M546 788q-58 -45 -112 -45q-27 0 -68.5 21.5t-65.5 21.5q-36 0 -76 -31l-40 92q62 48 120 48q30 0 71.5 -21.5t61.5 -21.5q25 0 58 24zM636 0h-183l-181 359l-66 146v-505h-136v705h183l180 -352q12 -24 29 -62l28 -64l10 -26v504h136v-705z" />
    <glyph glyph-name="Ograve" unicode="&#xd2;" horiz-adv-x="746" 
d="M474 758h-131l-197 117h185zM706 346q0 -92 -28.5 -164t-76.5 -115.5t-107 -65.5t-125 -22q-65 0 -122.5 22t-104.5 65.5t-74.5 117t-27.5 168.5q0 181 94.5 276.5t238.5 95.5q148 0 240.5 -96t92.5 -282zM564 352q0 121 -50.5 189.5t-142.5 68.5q-88 0 -138.5 -70.5
t-50.5 -191.5q0 -110 50 -182.5t139 -72.5q91 0 142 72.5t51 186.5z" />
    <glyph glyph-name="Oacute" unicode="&#xd3;" horiz-adv-x="746" 
d="M600 875l-197 -117h-131l143 117h185zM706 346q0 -92 -28.5 -164t-76.5 -115.5t-107 -65.5t-125 -22q-65 0 -122.5 22t-104.5 65.5t-74.5 117t-27.5 168.5q0 181 94.5 276.5t238.5 95.5q148 0 240.5 -96t92.5 -282zM564 352q0 121 -50.5 189.5t-142.5 68.5
q-88 0 -138.5 -70.5t-50.5 -191.5q0 -110 50 -182.5t139 -72.5q91 0 142 72.5t51 186.5z" />
    <glyph glyph-name="Ocircumflex" unicode="&#xd4;" horiz-adv-x="746" 
d="M595 758h-162l-60 62l-59 -62h-162l143 117h156zM706 346q0 -92 -28.5 -164t-76.5 -115.5t-107 -65.5t-125 -22q-65 0 -122.5 22t-104.5 65.5t-74.5 117t-27.5 168.5q0 181 94.5 276.5t238.5 95.5q148 0 240.5 -96t92.5 -282zM564 352q0 121 -50.5 189.5t-142.5 68.5
q-88 0 -138.5 -70.5t-50.5 -191.5q0 -110 50 -182.5t139 -72.5q91 0 142 72.5t51 186.5z" />
    <glyph glyph-name="Otilde" unicode="&#xd5;" horiz-adv-x="746" 
d="M560 788q-58 -45 -112 -45q-27 0 -68.5 21.5t-65.5 21.5q-36 0 -76 -31l-40 92q62 48 120 48q30 0 71.5 -21.5t61.5 -21.5q25 0 58 24zM706 346q0 -92 -28.5 -164t-76.5 -115.5t-107 -65.5t-125 -22q-65 0 -122.5 22t-104.5 65.5t-74.5 117t-27.5 168.5q0 181 94.5 276.5
t238.5 95.5q148 0 240.5 -96t92.5 -282zM564 352q0 121 -50.5 189.5t-142.5 68.5q-88 0 -138.5 -70.5t-50.5 -191.5q0 -110 50 -182.5t139 -72.5q91 0 142 72.5t51 186.5z" />
    <glyph glyph-name="Odieresis" unicode="&#xd6;" horiz-adv-x="746" 
d="M554 740h-138v130h138v-130zM331 740h-138v130h138v-130zM706 346q0 -92 -28.5 -164t-76.5 -115.5t-107 -65.5t-125 -22q-65 0 -122.5 22t-104.5 65.5t-74.5 117t-27.5 168.5q0 181 94.5 276.5t238.5 95.5q148 0 240.5 -96t92.5 -282zM564 352q0 121 -50.5 189.5
t-142.5 68.5q-88 0 -138.5 -70.5t-50.5 -191.5q0 -110 50 -182.5t139 -72.5q91 0 142 72.5t51 186.5z" />
    <glyph glyph-name="multiply" unicode="&#xd7;" horiz-adv-x="600" 
d="M492 219l-81 -81l-114 113l-113 -113l-81 81l113 113l-113 114l81 81l113 -113l114 113l81 -81l-113 -114z" />
    <glyph glyph-name="Oslash" unicode="&#xd8;" horiz-adv-x="746" 
d="M706 346q0 -92 -28.5 -164t-76.5 -115.5t-107 -65.5t-125 -22q-44 0 -79 8l-34 -92h-117l50 134q-149 96 -149 323q0 181 94.5 276.5t238.5 95.5q40 0 74 -7l33 88h115l-47 -125q158 -93 158 -334zM564 352q0 135 -62 203l-171 -458q16 -4 40 -4q91 0 142 72.5t51 186.5z
M406 607q-17 3 -35 3q-88 0 -138.5 -70.5t-50.5 -191.5q0 -119 56 -190z" />
    <glyph glyph-name="Ugrave" unicode="&#xd9;" horiz-adv-x="670" 
d="M454 758h-131l-197 117h185zM600 261q0 -135 -75.5 -207.5t-190.5 -72.5q-120 0 -192 69.5t-72 207.5v447h136v-428q0 -100 34.5 -138.5t93.5 -38.5q130 0 130 177v428h136v-444z" />
    <glyph glyph-name="Uacute" unicode="&#xda;" horiz-adv-x="670" 
d="M540 875l-197 -117h-131l143 117h185zM600 261q0 -135 -75.5 -207.5t-190.5 -72.5q-120 0 -192 69.5t-72 207.5v447h136v-428q0 -100 34.5 -138.5t93.5 -38.5q130 0 130 177v428h136v-444z" />
    <glyph glyph-name="Ucircumflex" unicode="&#xdb;" horiz-adv-x="670" 
d="M558 758h-162l-60 62l-59 -62h-162l143 117h156zM600 261q0 -135 -75.5 -207.5t-190.5 -72.5q-120 0 -192 69.5t-72 207.5v447h136v-428q0 -100 34.5 -138.5t93.5 -38.5q130 0 130 177v428h136v-444z" />
    <glyph glyph-name="Udieresis" unicode="&#xdc;" horiz-adv-x="670" 
d="M516 740h-138v130h138v-130zM293 740h-138v130h138v-130zM600 261q0 -135 -75.5 -207.5t-190.5 -72.5q-120 0 -192 69.5t-72 207.5v447h136v-428q0 -100 34.5 -138.5t93.5 -38.5q130 0 130 177v428h136v-444z" />
    <glyph glyph-name="Yacute" unicode="&#xdd;" horiz-adv-x="660" 
d="M570 875l-197 -117h-131l143 117h185zM640 705l-234 -417v-288h-136v288l-250 417h157l163 -277l148 277h152z" />
    <glyph glyph-name="Thorn" unicode="&#xde;" horiz-adv-x="597" 
d="M557 360q0 -120 -75 -178t-202 -58h-72v-124h-138v705h138v-114h64q135 0 210 -60t75 -171zM415 360q0 59 -37.5 88t-99.5 29h-70v-239h71q24 0 45.5 5.5t43 18t34.5 38t13 60.5z" />
    <glyph glyph-name="germandbls" unicode="&#xdf;" horiz-adv-x="568" 
d="M543 153q0 -81 -52 -125t-141 -44q-52 0 -97 21l35 88q24 -13 56 -13q31 0 45.5 22t14.5 47q0 26 -13.5 46t-33 35.5t-39.5 33.5t-33.5 48.5t-13.5 72.5q0 37 19 68.5t38 58t19 52.5t-21 42.5t-50 16.5q-76 0 -76 -101v-522h-135v501q0 112 60.5 165t161.5 53
q78 0 131 -38t53 -105q0 -29 -12.5 -55t-28 -42.5t-28 -38t-12.5 -42.5q0 -19 24 -43t52.5 -46.5t52.5 -64t24 -91.5z" />
    <glyph glyph-name="agrave" unicode="&#xe0;" horiz-adv-x="533" 
d="M334 598h-111l-157 147h165zM474 0h-101l-15 57q-25 -33 -64.5 -53t-86.5 -20q-69 0 -120.5 39.5t-51.5 122.5q0 84 66 128t180 44h52v18q0 41 -19.5 62t-49.5 21q-82 0 -173 -50l-39 91q107 56 193 56q115 0 169 -44.5t54 -146.5v-221q0 -10 3 -53t3 -51zM333 126v106
h-41q-119 0 -119 -84q0 -31 20 -49t55 -18q55 0 85 45z" />
    <glyph glyph-name="aacute" unicode="&#xe1;" horiz-adv-x="533" 
d="M442 745l-167 -147h-111l113 147h165zM474 0h-101l-15 57q-25 -33 -64.5 -53t-86.5 -20q-69 0 -120.5 39.5t-51.5 122.5q0 84 66 128t180 44h52v18q0 41 -19.5 62t-49.5 21q-82 0 -173 -50l-39 91q107 56 193 56q115 0 169 -44.5t54 -146.5v-221q0 -10 3 -53t3 -51z
M333 126v106h-41q-119 0 -119 -84q0 -31 20 -49t55 -18q55 0 85 45z" />
    <glyph glyph-name="acircumflex" unicode="&#xe2;" horiz-adv-x="533" 
d="M466 598h-147l-60 77l-59 -77h-147l143 147h126zM474 0h-101l-15 57q-25 -33 -64.5 -53t-86.5 -20q-69 0 -120.5 39.5t-51.5 122.5q0 84 66 128t180 44h52v18q0 41 -19.5 62t-49.5 21q-82 0 -173 -50l-39 91q107 56 193 56q115 0 169 -44.5t54 -146.5v-221q0 -10 3 -53
t3 -51zM333 126v106h-41q-119 0 -119 -84q0 -31 20 -49t55 -18q55 0 85 45z" />
    <glyph glyph-name="atilde" unicode="&#xe3;" horiz-adv-x="533" 
d="M432 655q-58 -45 -112 -45q-27 0 -68.5 21.5t-65.5 21.5q-36 0 -76 -31l-40 92q62 48 120 48q30 0 71.5 -21.5t61.5 -21.5q25 0 58 24zM474 0h-101l-15 57q-25 -33 -64.5 -53t-86.5 -20q-69 0 -120.5 39.5t-51.5 122.5q0 84 66 128t180 44h52v18q0 41 -19.5 62t-49.5 21
q-82 0 -173 -50l-39 91q107 56 193 56q115 0 169 -44.5t54 -146.5v-221q0 -10 3 -53t3 -51zM333 126v106h-41q-119 0 -119 -84q0 -31 20 -49t55 -18q55 0 85 45z" />
    <glyph glyph-name="adieresis" unicode="&#xe4;" horiz-adv-x="533" 
d="M450 575h-138v130h138v-130zM227 575h-138v130h138v-130zM474 0h-101l-15 57q-25 -33 -64.5 -53t-86.5 -20q-69 0 -120.5 39.5t-51.5 122.5q0 84 66 128t180 44h52v18q0 41 -19.5 62t-49.5 21q-82 0 -173 -50l-39 91q107 56 193 56q115 0 169 -44.5t54 -146.5v-221
q0 -10 3 -53t3 -51zM333 126v106h-41q-119 0 -119 -84q0 -31 20 -49t55 -18q55 0 85 45z" />
    <glyph glyph-name="aring" unicode="&#xe5;" horiz-adv-x="533" 
d="M371 655q0 -49 -33.5 -81.5t-83.5 -32.5q-48 0 -82 33t-34 81q0 47 34 80.5t82 33.5t82.5 -33t34.5 -81zM474 0h-101l-15 57q-25 -33 -64.5 -53t-86.5 -20q-69 0 -120.5 39.5t-51.5 122.5q0 84 66 128t180 44h52v18q0 41 -19.5 62t-49.5 21q-82 0 -173 -50l-39 91
q107 56 193 56q115 0 169 -44.5t54 -146.5v-221q0 -10 3 -53t3 -51zM297 656q0 19 -11 31.5t-32 12.5q-18 0 -30.5 -14t-12.5 -30q0 -17 12 -30.5t31 -13.5q20 0 31.5 12.5t11.5 31.5zM333 126v106h-41q-119 0 -119 -84q0 -31 20 -49t55 -18q55 0 85 45z" />
    <glyph glyph-name="ae" unicode="&#xe6;" horiz-adv-x="840" 
d="M800 210h-334q0 -51 38 -86t89 -35q43 0 72.5 12.5t62.5 40.5l62 -86q-88 -72 -193 -72q-63 0 -114.5 21t-77.5 61q-40 -44 -84.5 -63t-113.5 -19t-120.5 39.5t-51.5 122.5q0 84 66 128t180 44h52v18q0 41 -19.5 62t-49.5 21q-82 0 -173 -50l-39 91q107 56 193 56
q63 0 99.5 -13t75.5 -52q55 65 151 65q119 0 174 -83t55 -223zM670 297q-2 122 -101 122q-51 0 -77 -35t-26 -87h204zM333 126v106h-41q-119 0 -119 -84q0 -31 20 -49t55 -18q55 0 85 45z" />
    <glyph glyph-name="ccedilla" unicode="&#xe7;" horiz-adv-x="489" 
d="M474 455l-64 -94q-56 46 -114 46q-52 0 -85 -38.5t-33 -121.5q0 -62 33.5 -108t82.5 -46q35 0 61 11t59 36l58 -94q-68 -54 -147 -61l-3 -35q39 -8 60 -34t21 -64q0 -59 -38 -97.5t-116 -38.5q-62 0 -103 21l32 92q34 -14 62 -14q20 0 34.5 10.5t14.5 29.5q0 16 -12 25
t-22 11t-34 5l12 94q-95 19 -144 88t-49 169q0 123 69.5 196t192.5 73q92 0 172 -61z" />
    <glyph glyph-name="egrave" unicode="&#xe8;" horiz-adv-x="549" 
d="M361 598h-111l-157 147h165zM509 210h-336q9 -64 46.5 -92.5t82.5 -28.5q43 0 72.5 12.5t62.5 40.5l62 -86q-88 -72 -193 -72q-114 0 -190 66.5t-76 195.5q0 137 66.5 203.5t173.5 66.5q119 0 174 -83t55 -223zM379 297q-2 122 -101 122q-94 0 -104 -122h205z" />
    <glyph glyph-name="eacute" unicode="&#xe9;" horiz-adv-x="549" 
d="M476 745l-167 -147h-111l113 147h165zM509 210h-336q9 -64 46.5 -92.5t82.5 -28.5q43 0 72.5 12.5t62.5 40.5l62 -86q-88 -72 -193 -72q-114 0 -190 66.5t-76 195.5q0 137 66.5 203.5t173.5 66.5q119 0 174 -83t55 -223zM379 297q-2 122 -101 122q-94 0 -104 -122h205z
" />
    <glyph glyph-name="ecircumflex" unicode="&#xea;" horiz-adv-x="549" 
d="M489 598h-147l-60 77l-59 -77h-147l143 147h126zM509 210h-336q9 -64 46.5 -92.5t82.5 -28.5q43 0 72.5 12.5t62.5 40.5l62 -86q-88 -72 -193 -72q-114 0 -190 66.5t-76 195.5q0 137 66.5 203.5t173.5 66.5q119 0 174 -83t55 -223zM379 297q-2 122 -101 122
q-94 0 -104 -122h205z" />
    <glyph glyph-name="edieresis" unicode="&#xeb;" horiz-adv-x="549" 
d="M461 575h-138v130h138v-130zM238 575h-138v130h138v-130zM509 210h-336q9 -64 46.5 -92.5t82.5 -28.5q43 0 72.5 12.5t62.5 40.5l62 -86q-88 -72 -193 -72q-114 0 -190 66.5t-76 195.5q0 137 66.5 203.5t173.5 66.5q119 0 174 -83t55 -223zM379 297q-2 122 -101 122
q-94 0 -104 -122h205z" />
    <glyph glyph-name="igrave" unicode="&#xec;" horiz-adv-x="273" 
d="M230 598h-111l-157 147h165zM204 0h-135v500h135v-500z" />
    <glyph glyph-name="iacute" unicode="&#xed;" horiz-adv-x="273" 
d="M321 745l-167 -147h-111l113 147h165zM204 0h-135v500h135v-500z" />
    <glyph glyph-name="icircumflex" unicode="&#xee;" horiz-adv-x="273" 
d="M343 598h-147l-60 77l-59 -77h-147l143 147h126zM204 0h-135v500h135v-500z" />
    <glyph glyph-name="idieresis" unicode="&#xef;" horiz-adv-x="273" 
d="M317 575h-138v130h138v-130zM94 575h-138v130h138v-130zM204 0h-135v500h135v-500z" />
    <glyph glyph-name="eth" unicode="&#xf0;" horiz-adv-x="505" 
d="M475 288q0 -151 -64 -229t-170 -78q-91 0 -156 62.5t-65 159.5q0 99 59 157t132 58q72 0 125 -44q-15 116 -54 158l-38 -58h-118l67 101q-50 10 -134 10l32 107q93 0 164 -23l37 56h116l-65 -99q132 -94 132 -338zM339 273q-48 36 -102 36q-38 0 -58.5 -29.5t-20.5 -76.5
q0 -56 27 -84.5t68 -28.5q34 0 60 43.5t26 139.5z" />
    <glyph glyph-name="ntilde" unicode="&#xf1;" horiz-adv-x="574" 
d="M482 655q-58 -45 -112 -45q-27 0 -68.5 21.5t-65.5 21.5q-36 0 -76 -31l-40 92q62 48 120 48q30 0 71.5 -21.5t61.5 -21.5q25 0 58 24zM509 0h-135v278q0 68 -15 98.5t-66 30.5q-47 0 -93 -57v-350h-135v410q0 10 -3 49.5t-3 40.5h101l15 -64q63 80 157 80q97 0 137 -55
t40 -192v-269z" />
    <glyph glyph-name="ograve" unicode="&#xf2;" horiz-adv-x="578" 
d="M370 598h-111l-157 147h165zM538 252q0 -125 -70 -196.5t-179 -71.5q-110 0 -179.5 71.5t-69.5 196.5q0 124 70 194t179 70q111 0 180 -69.5t69 -194.5zM401 252q0 70 -29 114.5t-83 44.5q-57 0 -84.5 -43.5t-27.5 -115.5q0 -71 29 -117t83 -46q57 0 84.5 45.5
t27.5 117.5z" />
    <glyph glyph-name="oacute" unicode="&#xf3;" horiz-adv-x="578" 
d="M486 745l-167 -147h-111l113 147h165zM538 252q0 -125 -70 -196.5t-179 -71.5q-110 0 -179.5 71.5t-69.5 196.5q0 124 70 194t179 70q111 0 180 -69.5t69 -194.5zM401 252q0 70 -29 114.5t-83 44.5q-57 0 -84.5 -43.5t-27.5 -115.5q0 -71 29 -117t83 -46q57 0 84.5 45.5
t27.5 117.5z" />
    <glyph glyph-name="ocircumflex" unicode="&#xf4;" horiz-adv-x="578" 
d="M496 598h-147l-60 77l-59 -77h-147l143 147h126zM538 252q0 -125 -70 -196.5t-179 -71.5q-110 0 -179.5 71.5t-69.5 196.5q0 124 70 194t179 70q111 0 180 -69.5t69 -194.5zM401 252q0 70 -29 114.5t-83 44.5q-57 0 -84.5 -43.5t-27.5 -115.5q0 -71 29 -117t83 -46
q57 0 84.5 45.5t27.5 117.5z" />
    <glyph glyph-name="otilde" unicode="&#xf5;" horiz-adv-x="578" 
d="M482 655q-58 -45 -112 -45q-27 0 -68.5 21.5t-65.5 21.5q-36 0 -76 -31l-40 92q62 48 120 48q30 0 71.5 -21.5t61.5 -21.5q25 0 58 24zM538 252q0 -125 -70 -196.5t-179 -71.5q-110 0 -179.5 71.5t-69.5 196.5q0 124 70 194t179 70q111 0 180 -69.5t69 -194.5zM401 252
q0 70 -29 114.5t-83 44.5q-57 0 -84.5 -43.5t-27.5 -115.5q0 -71 29 -117t83 -46q57 0 84.5 45.5t27.5 117.5z" />
    <glyph glyph-name="odieresis" unicode="&#xf6;" horiz-adv-x="578" 
d="M470 575h-138v130h138v-130zM247 575h-138v130h138v-130zM538 252q0 -125 -70 -196.5t-179 -71.5q-110 0 -179.5 71.5t-69.5 196.5q0 124 70 194t179 70q111 0 180 -69.5t69 -194.5zM401 252q0 70 -29 114.5t-83 44.5q-57 0 -84.5 -43.5t-27.5 -115.5q0 -71 29 -117
t83 -46q57 0 84.5 45.5t27.5 117.5z" />
    <glyph glyph-name="divide" unicode="&#xf7;" horiz-adv-x="600" 
d="M375 435h-150v135h150v-135zM510 270h-420v111h420v-111zM375 80h-150v135h150v-135z" />
    <glyph glyph-name="oslash" unicode="&#xf8;" horiz-adv-x="578" 
d="M538 252q0 -125 -70 -196.5t-179 -71.5q-26 0 -54 5l-41 -94h-116l59 136q-97 73 -97 221q0 124 70 194t179 70q27 0 55 -5l40 94h116l-58 -135q96 -70 96 -218zM401 252q0 50 -15 88l-108 -250q2 0 5.5 -0.5t5.5 -0.5q57 0 84.5 45.5t27.5 117.5zM300 410q-2 0 -5.5 0.5
t-5.5 0.5q-57 0 -84.5 -43.5t-27.5 -115.5q0 -49 16 -91z" />
    <glyph glyph-name="ugrave" unicode="&#xf9;" horiz-adv-x="564" 
d="M381 598h-111l-157 147h165zM505 0h-101l-15 60q-57 -74 -149 -74q-94 0 -134.5 51.5t-40.5 154.5v308h135v-291q0 -69 14 -93.5t57 -24.5q54 0 93 59v350h135v-410q0 -10 3 -49.5t3 -40.5z" />
    <glyph glyph-name="uacute" unicode="&#xfa;" horiz-adv-x="564" 
d="M455 745l-157 -147h-111l103 147h165zM505 0h-101l-15 60q-57 -74 -149 -74q-94 0 -134.5 51.5t-40.5 154.5v308h135v-291q0 -69 14 -93.5t57 -24.5q54 0 93 59v350h135v-410q0 -10 3 -49.5t3 -40.5z" />
    <glyph glyph-name="ucircumflex" unicode="&#xfb;" horiz-adv-x="564" 
d="M489 598h-147l-60 77l-59 -77h-147l143 147h126zM505 0h-101l-15 60q-57 -74 -149 -74q-94 0 -134.5 51.5t-40.5 154.5v308h135v-291q0 -69 14 -93.5t57 -24.5q54 0 93 59v350h135v-410q0 -10 3 -49.5t3 -40.5z" />
    <glyph glyph-name="udieresis" unicode="&#xfc;" horiz-adv-x="564" 
d="M463 575h-138v130h138v-130zM240 575h-138v130h138v-130zM505 0h-101l-15 60q-57 -74 -149 -74q-94 0 -134.5 51.5t-40.5 154.5v308h135v-291q0 -69 14 -93.5t57 -24.5q54 0 93 59v350h135v-410q0 -10 3 -49.5t3 -40.5z" />
    <glyph glyph-name="yacute" unicode="&#xfd;" horiz-adv-x="523" 
d="M458 745l-157 -147h-111l103 147h165zM513 500l-174 -538q-56 -173 -262 -192l-19 107q125 17 148 99l7 26l-203 498h143l73 -193q11 -28 24.5 -71t21.5 -72l9 -28l96 364h136z" />
    <glyph glyph-name="thorn" unicode="&#xfe;" horiz-adv-x="571" 
d="M531 252q0 -129 -62.5 -198.5t-154.5 -69.5q-30 0 -62.5 12t-51.5 33v-229h-135v920h135v-252q51 48 123 48q94 0 151 -68t57 -196zM393 250q0 88 -30 124.5t-72 36.5q-55 0 -91 -46v-250q23 -26 69 -26q58 0 91 41t33 120z" />
    <glyph glyph-name="ydieresis" unicode="&#xff;" horiz-adv-x="523" 
d="M442 575h-138v130h138v-130zM219 575h-138v130h138v-130zM513 500l-174 -538q-56 -173 -262 -192l-19 107q125 17 148 99l7 26l-203 498h143l73 -193q11 -28 24.5 -71t21.5 -72l9 -28l96 364h136z" />
    <glyph glyph-name="dotlessi" unicode="&#x131;" horiz-adv-x="273" 
d="M204 0h-135v500h135v-500z" />
    <glyph glyph-name="Lslash" unicode="&#x141;" horiz-adv-x="495" 
d="M490 0h-420v258l-65 -40v138l65 40v309h138v-223l141 87v-138l-141 -87v-222h282v-122z" />
    <glyph glyph-name="lslash" unicode="&#x142;" horiz-adv-x="265" 
d="M260 433l-62 -53v-380h-135v266l-58 -49v148l58 49v306h135v-192l62 53v-148z" />
    <glyph glyph-name="Ohungarumlaut" unicode="&#x150;" horiz-adv-x="746" 
d="M497 875l-197 -117h-131l143 117h185zM728 875l-197 -117h-131l143 117h185zM706 346q0 -92 -28.5 -164t-76.5 -115.5t-107 -65.5t-125 -22q-65 0 -122.5 22t-104.5 65.5t-74.5 117t-27.5 168.5q0 181 94.5 276.5t238.5 95.5q148 0 240.5 -96t92.5 -282zM564 352
q0 121 -50.5 189.5t-142.5 68.5q-88 0 -138.5 -70.5t-50.5 -191.5q0 -110 50 -182.5t139 -72.5q91 0 142 72.5t51 186.5z" />
    <glyph glyph-name="ohungarumlaut" unicode="&#x151;" horiz-adv-x="578" 
d="M538 252q0 -125 -70 -196.5t-179 -71.5q-110 0 -179.5 71.5t-69.5 196.5q0 124 70 194t179 70q111 0 180 -69.5t69 -194.5zM401 252q0 70 -29 114.5t-83 44.5q-57 0 -84.5 -43.5t-27.5 -115.5q0 -71 29 -117t83 -46q57 0 84.5 45.5t27.5 117.5zM585 745l-157 -147h-101
l103 147h155zM385 745l-157 -147h-101l103 147h155z" />
    <glyph glyph-name="OE" unicode="&#x152;" horiz-adv-x="944" 
d="M899 0h-404q-68 -21 -126 -21q-65 0 -122.5 22t-104.5 65.5t-74.5 117t-27.5 168.5q0 181 94.5 276.5t238.5 95.5q16 0 29 -1t21.5 -1.5t20 -3l16 -3.5t17.5 -5t18 -5h394v-114h-266v-169h243v-114h-243v-194h276v-114zM485 132v439q-46 39 -114 39q-88 0 -138.5 -70.5
t-50.5 -191.5q0 -110 50 -182.5t139 -72.5q66 0 114 39z" />
    <glyph glyph-name="oe" unicode="&#x153;" horiz-adv-x="909" 
d="M869 210h-336q9 -64 46.5 -92.5t82.5 -28.5q43 0 72.5 12.5t62.5 40.5l62 -86q-88 -72 -193 -72q-60 0 -113.5 23t-85.5 65q-26 -41 -74 -64.5t-104 -23.5q-110 0 -179.5 71.5t-69.5 196.5q0 124 70 194t179 70q116 0 176 -81q26 38 73.5 59.5t101.5 21.5q119 0 174 -83
t55 -223zM739 297q-2 122 -101 122q-94 0 -104 -122h205zM401 252q0 70 -29 114.5t-83 44.5q-57 0 -84.5 -43.5t-27.5 -115.5q0 -71 29 -117t83 -46q57 0 84.5 45.5t27.5 117.5z" />
    <glyph glyph-name="Scaron" unicode="&#x160;" horiz-adv-x="620" 
d="M540 875l-144 -117h-156l-143 117h162l59 -62l60 62h162zM575 194q0 -107 -75.5 -161t-201.5 -54q-153 0 -268 89l65 110q108 -81 210 -81q59 0 93.5 22.5t34.5 59.5q0 44 -36 71t-129 55q-48 15 -81 29.5t-65 38.5t-48 60t-16 84q0 94 71.5 150.5t199.5 56.5
q127 0 245 -79l-66 -105q-90 70 -186 70q-52 0 -87 -19.5t-35 -59.5q0 -41 33 -62.5t116 -46.5q46 -14 79 -28.5t70 -40.5t57 -66t20 -93z" />
    <glyph glyph-name="scaron" unicode="&#x161;" horiz-adv-x="468" 
d="M439 745l-143 -147h-126l-144 147h147l60 -77l59 77h147zM433 138q0 -75 -55.5 -113.5t-147.5 -38.5q-64 0 -110.5 17t-99.5 52l59 93q79 -59 147 -59q69 0 69 45q0 27 -22.5 40.5t-74.5 26.5q-156 39 -156 157q0 70 53 113t148 43q109 0 185 -58l-54 -90
q-26 22 -64 33.5t-61 11.5q-69 0 -69 -40q0 -20 17 -34t38 -21t71 -20q127 -34 127 -158z" />
    <glyph glyph-name="Uhungarumlaut" unicode="&#x170;" horiz-adv-x="670" 
d="M461 875l-197 -117h-131l143 117h185zM692 875l-197 -117h-131l143 117h185zM600 261q0 -135 -75.5 -207.5t-190.5 -72.5q-120 0 -192 69.5t-72 207.5v447h136v-428q0 -100 34.5 -138.5t93.5 -38.5q130 0 130 177v428h136v-444z" />
    <glyph glyph-name="uhungarumlaut" unicode="&#x171;" horiz-adv-x="564" 
d="M505 0h-101l-15 60q-57 -74 -149 -74q-94 0 -134.5 51.5t-40.5 154.5v308h135v-291q0 -69 14 -93.5t57 -24.5q54 0 93 59v350h135v-410q0 -10 3 -49.5t3 -40.5zM581 745l-157 -147h-101l103 147h155zM381 745l-157 -147h-101l103 147h155z" />
    <glyph glyph-name="Ydieresis" unicode="&#x178;" horiz-adv-x="660" 
d="M511 740h-138v130h138v-130zM288 740h-138v130h138v-130zM640 705l-234 -417v-288h-136v288l-250 417h157l163 -277l148 277h152z" />
    <glyph glyph-name="Zcaron" unicode="&#x17d;" horiz-adv-x="561" 
d="M525 875l-144 -117h-156l-143 117h162l59 -62l60 62h162zM526 600l-325 -484h322v-116h-493v105l326 484h-285v116h455v-105z" />
    <glyph glyph-name="zcaron" unicode="&#x17e;" horiz-adv-x="458" 
d="M443 745l-143 -147h-126l-144 147h147l60 -77l59 77h147zM428 400l-235 -293h229v-107h-397v100l235 293h-214v107h382v-100z" />
    <glyph glyph-name="florin" unicode="&#x192;" horiz-adv-x="345" 
d="M385 690l-45 -100q-29 21 -63 21q-56 0 -56 -74v-37h108v-105h-108v-341q0 -128 -67 -193t-192 -83l-20 109q67 12 105.5 43.5t38.5 97.5v367h-76v105h76v27q0 99 45 146t139 47q59 0 115 -30z" />
    <glyph glyph-name="circumflex" unicode="&#x2c6;" horiz-adv-x="473" 
d="M443 598h-147l-60 77l-59 -77h-147l143 147h126z" />
    <glyph glyph-name="caron" unicode="&#x2c7;" horiz-adv-x="473" 
d="M443 745l-143 -147h-126l-144 147h147l60 -77l59 77h147z" />
    <glyph glyph-name="uni02C9" unicode="&#x2c9;" horiz-adv-x="333" 
d="M303 615h-273v110h273v-110z" />
    <glyph glyph-name="breve" unicode="&#x2d8;" horiz-adv-x="428" 
d="M398 745q-24 -155 -184 -155q-49 0 -85 15t-55.5 39.5t-29.5 49t-14 51.5h129q6 -61 55 -61q24 0 39 16t16 45h129z" />
    <glyph glyph-name="dotaccent" unicode="&#x2d9;" horiz-adv-x="273" 
d="M208 586h-143v134h143v-134z" />
    <glyph glyph-name="ring" unicode="&#x2da;" horiz-adv-x="293" 
d="M263 655q0 -49 -33.5 -81.5t-83.5 -32.5q-48 0 -82 33t-34 81q0 47 34 80.5t82 33.5t82.5 -33t34.5 -81zM189 656q0 19 -11 31.5t-32 12.5q-18 0 -30.5 -14t-12.5 -30q0 -17 12 -30.5t31 -13.5q20 0 31.5 12.5t11.5 31.5z" />
    <glyph glyph-name="ogonek" unicode="&#x2db;" horiz-adv-x="315" 
d="M292 -189q-53 -21 -99 -21q-77 0 -109 36t-32 103q0 58 54 131h84q-37 -77 -37 -124q0 -41 41 -41q33 0 75 14z" />
    <glyph glyph-name="tilde" unicode="&#x2dc;" horiz-adv-x="422" 
d="M392 655q-58 -45 -112 -45q-27 0 -68.5 21.5t-65.5 21.5q-36 0 -76 -31l-40 92q62 48 120 48q30 0 71.5 -21.5t61.5 -21.5q25 0 58 24z" />
    <glyph glyph-name="hungarumlaut" unicode="&#x2dd;" horiz-adv-x="518" 
d="M488 745l-157 -147h-101l103 147h155zM288 745l-157 -147h-101l103 147h155z" />
    <glyph glyph-name="uni03BC" unicode="&#x3bc;" horiz-adv-x="564" 
d="M505 0h-101l-15 60q-57 -74 -149 -74q-22 0 -40 9v-195h-135v700h135v-291q0 -69 14 -93.5t57 -24.5q54 0 93 59v350h135v-410q0 -10 3 -49.5t3 -40.5z" />
    <glyph glyph-name="pi" unicode="&#x3c0;" horiz-adv-x="650" 
d="M623 44l-25 -115q-208 26 -208 215v241h-128v-385h-135v385h-102v115h594v-115h-94v-204q0 -62 20.5 -97.5t77.5 -39.5z" />
    <glyph glyph-name="endash" unicode="&#x2013;" horiz-adv-x="600" 
d="M520 275h-440v115h440v-115z" />
    <glyph glyph-name="emdash" unicode="&#x2014;" horiz-adv-x="700" 
d="M620 275h-540v115h540v-115z" />
    <glyph glyph-name="quoteleft" unicode="&#x2018;" horiz-adv-x="280" 
d="M260 720l-35 -302h-154l93 302h96z" />
    <glyph glyph-name="quoteright" unicode="&#x2019;" horiz-adv-x="320" 
d="M260 720l-93 -302h-96l35 302h154z" />
    <glyph glyph-name="quotesinglbase" unicode="&#x201a;" horiz-adv-x="320" 
d="M260 140l-93 -302h-96l35 302h154z" />
    <glyph glyph-name="quotedblleft" unicode="&#x201c;" horiz-adv-x="540" 
d="M480 720l-35 -302h-154l93 302h96zM260 720l-35 -302h-154l93 302h96z" />
    <glyph glyph-name="quotedblright" unicode="&#x201d;" horiz-adv-x="540" 
d="M480 720l-93 -302h-96l35 302h154zM260 720l-93 -302h-96l35 302h154z" />
    <glyph glyph-name="quotedblbase" unicode="&#x201e;" horiz-adv-x="540" 
d="M480 140l-93 -302h-96l35 302h154zM260 140l-93 -302h-96l35 302h154z" />
    <glyph glyph-name="dagger" unicode="&#x2020;" horiz-adv-x="560" 
d="M520 405h-180v-405h-120v405h-180v115h180v200h120v-200h180v-115z" />
    <glyph glyph-name="daggerdbl" unicode="&#x2021;" horiz-adv-x="560" 
d="M520 195h-180v-195h-120v195h-180v115h180v105h-180v115h180v190h120v-190h180v-115h-180v-105h180v-115z" />
    <glyph glyph-name="bullet" unicode="&#x2022;" 
d="M240 235h-180v180h180v-180z" />
    <glyph glyph-name="ellipsis" unicode="&#x2026;" horiz-adv-x="900" 
d="M825 0h-150v140h150v-140zM525 0h-150v140h150v-140zM225 0h-150v140h150v-140z" />
    <glyph glyph-name="perthousand" unicode="&#x2030;" horiz-adv-x="1215" 
d="M1190 178q0 -92 -46 -141t-117 -49q-74 0 -118.5 49t-44.5 141q0 91 45.5 140t117.5 49q75 0 119 -48t44 -141zM825 178q0 -92 -46 -141t-117 -49q-74 0 -118.5 49t-44.5 141q0 91 45.5 140t117.5 49q75 0 119 -48t44 -141zM652 720l-320 -720h-134l320 720h134zM351 536
q0 -92 -46 -141t-117 -49q-74 0 -118.5 49t-44.5 141q0 91 45.5 140t117.5 49q75 0 119 -48t44 -141zM1083 178q0 90 -56 90t-56 -90q0 -91 56 -91t56 91zM718 178q0 90 -56 90t-56 -90q0 -91 56 -91t56 91zM244 536q0 90 -56 90t-56 -90q0 -91 56 -91t56 91z" />
    <glyph glyph-name="guilsinglleft" unicode="&#x2039;" horiz-adv-x="380" 
d="M290 112h-106l-119 227l119 227h106l-83 -227z" />
    <glyph glyph-name="guilsinglright" unicode="&#x203a;" horiz-adv-x="380" 
d="M305 339l-119 -227h-106l83 227l-83 227h106z" />
    <glyph glyph-name="fraction" unicode="&#x2044;" horiz-adv-x="240" 
d="M340 810l-306 -910h-134l304 910h136z" />
    <glyph glyph-name="Euro" unicode="&#x20ac;" horiz-adv-x="665" 
d="M630 605l-56 -106q-54 60 -135 60q-118 0 -159 -98h277l-32 -108h-266v-23q0 -19 1 -28h272l-32 -108h-214q47 -97 157 -97q81 0 152 47v-128q-72 -37 -152 -37q-124 0 -198 60.5t-106 154.5h-109l32 108h56q-1 9 -1 27q0 4 0.5 12t0.5 12h-88l32 108h76q31 96 106 156
t195 60q110 0 191 -72z" />
    <glyph glyph-name="trademark" unicode="&#x2122;" horiz-adv-x="969" 
d="M929 297h-113v314q-17 -64 -30 -106l-67 -208h-101l-65 208l-32 106v-314h-110v327h-141v-327h-110v327h-130v96h552l63 -191l26 -87q12 50 25 87l68 191h165v-423z" />
    <glyph glyph-name="Omega" unicode="&#x2126;" horiz-adv-x="680" 
d="M650 412q0 -56 -12.5 -106t-50.5 -100t-99 -74v-22h138v-110h-244v211q133 41 133 201q0 98 -50.5 148t-125.5 50t-124.5 -50.5t-49.5 -147.5q0 -154 119 -201v-211h-234v110h129v22q-74 34 -111.5 118t-37.5 162q0 142 92.5 227t218.5 85q127 0 218 -84.5t91 -227.5z
" />
    <glyph glyph-name="partialdiff" unicode="&#x2202;" horiz-adv-x="515" 
d="M487 288q0 -151 -63 -229t-170 -78q-91 0 -156.5 62.5t-65.5 159.5q0 99 59 157t132 58q72 0 125 -44q0 75 -34.5 135t-95.5 60q-64 0 -107 -28l-51 97q62 42 146 42q132 0 206.5 -106t74.5 -286zM351 273q-48 36 -102 36q-38 0 -58.5 -29.5t-20.5 -76.5q0 -56 27 -84.5
t68 -28.5q34 0 60 43.5t26 139.5z" />
    <glyph glyph-name="Delta" unicode="&#x2206;" horiz-adv-x="670" 
d="M655 0h-640l268 720h126zM487 115l-143 460l-160 -460h303z" />
    <glyph glyph-name="product" unicode="&#x220f;" horiz-adv-x="650" 
d="M619 605h-94v-805h-135v805h-128v-805h-135v805h-102v115h594v-115z" />
    <glyph glyph-name="summation" unicode="&#x2211;" horiz-adv-x="565" 
d="M505 -200h-445v104l199 358l-186 353v105h421v-115h-278l180 -343l-195 -348h304v-114z" />
    <glyph glyph-name="minus" unicode="&#x2212;" horiz-adv-x="560" 
d="M480 275h-400v115h400v-115z" />
    <glyph glyph-name="uni2215" unicode="&#x2215;" horiz-adv-x="240" 
d="M340 810l-306 -910h-134l304 910h136z" />
    <glyph glyph-name="uni2219" unicode="&#x2219;" 
d="M225 255h-150v140h150v-140z" />
    <glyph glyph-name="radical" unicode="&#x221a;" horiz-adv-x="620" 
d="M605 695h-105l-192 -696h-154l-139 393h125l87 -261l184 679h194v-115z" />
    <glyph glyph-name="infinity" unicode="&#x221e;" horiz-adv-x="670" 
d="M644 345q0 -65 -47.5 -116.5t-122.5 -51.5q-88 0 -139 80q-53 -80 -142 -80q-77 0 -122 51t-45 117q0 65 46 115.5t121 50.5q47 0 84.5 -22.5t58.5 -56.5q27 38 57 58.5t81 20.5q76 0 123 -50.5t47 -115.5zM532 345q0 28 -14.5 44.5t-43.5 16.5q-27 0 -43.5 -12
t-36.5 -49q34 -63 80 -63q21 0 39.5 17.5t18.5 45.5zM276 345q-18 37 -34 49t-49 12q-19 0 -37 -17t-18 -44q0 -29 16.5 -46t38.5 -17q27 0 46 13t37 50z" />
    <glyph glyph-name="uni2224" unicode="&#x2224;" 
d="M225 255h-150v140h150v-140z" />
    <glyph glyph-name="uni2227" unicode="&#x2227;" 
d="M225 255h-150v140h150v-140z" />
    <glyph glyph-name="integral" unicode="&#x222b;" horiz-adv-x="460" 
d="M450 784l-45 -100q-29 21 -63 21q-56 0 -56 -74v-577q0 -128 -67 -193t-192 -83l-21 116q67 12 106 43.5t39 97.5v586q0 99 45 146t139 47q59 0 115 -30z" />
    <glyph glyph-name="approxequal" unicode="&#x2248;" horiz-adv-x="600" 
d="M522 410q-58 -65 -148 -65q-34 0 -86 21t-84 21q-29 0 -46 -6.5t-40 -26.5l-64 87q41 32 71.5 46.5t73.5 14.5q39 0 92 -21.5t82 -21.5q46 0 78 33zM538 219q-59 -66 -148 -66q-34 0 -85.5 21.5t-83.5 21.5q-29 0 -46 -7t-40 -27l-64 88q41 32 71.5 46.5t73.5 14.5
q39 0 92 -22t82 -22q45 0 78 34z" />
    <glyph glyph-name="notequal" unicode="&#x2260;" horiz-adv-x="610" 
d="M530 175h-251l-70 -125h-119l69 125h-79v115h143l47 85h-190v115h253l72 130h121l-72 -130h76v-115h-140l-48 -85h188v-115z" />
    <glyph glyph-name="lessequal" unicode="&#x2264;" horiz-adv-x="600" 
d="M510 147l-420 165v93l420 169v-124l-278 -89l278 -89v-125zM510 0h-420v115h420v-115z" />
    <glyph glyph-name="greaterequal" unicode="&#x2265;" horiz-adv-x="600" 
d="M510 312l-420 -165v125l278 89l-278 89v124l420 -169v-93zM510 0h-420v115h420v-115z" />
    <glyph glyph-name="uni22C5" unicode="&#x22c5;" 
d="M225 255h-150v140h150v-140z" />
    <glyph glyph-name="uni25AF" unicode="&#x25af;" horiz-adv-x="574" 
d="M59 0v705h456v-705h-456zM174 115h226v475h-226v-475z" />
    <glyph glyph-name="lozenge" unicode="&#x25ca;" horiz-adv-x="630" 
d="M615 361l-235 -361h-143l-222 361l222 359h144zM471 361l-162 256l-151 -256l151 -256z" />
    <glyph glyph-name="fi" unicode="&#xfb01;" horiz-adv-x="603" 
d="M534 0h-135v395h-178v-395h-135v395h-76v105h76v27q0 100 50 146.5t160 46.5q79 0 162 -31l-45 -105q-60 27 -110 27q-82 0 -82 -74v-37h313v-500z" />
    <glyph glyph-name="fl" unicode="&#xfb02;" horiz-adv-x="555" 
d="M534 0h-135v590q-55 21 -96 21q-82 0 -82 -74v-37h108v-105h-108v-395h-135v395h-76v105h76v27q0 100 50 146.5t160 46.5q53 0 120 -18l118 18v-720z" />
    </font>
</defs>
</svg>
